<svg width="11" height="11" viewBox="0 0 11 11" fill="none" xmlns="http://www.w3.org/2000/svg">
<path d="M9.99219 4.71875H6.28125V1.00781C6.28125 0.900391 6.19336 0.8125 6.08594 0.8125H4.91406C4.80664 0.8125 4.71875 0.900391 4.71875 1.00781V4.71875H1.00781C0.900391 4.71875 0.8125 4.80664 0.8125 4.91406V6.08594C0.8125 6.19336 0.900391 6.28125 1.00781 6.28125H4.71875V9.99219C4.71875 10.0996 4.80664 10.1875 4.91406 10.1875H6.08594C6.19336 10.1875 6.28125 10.0996 6.28125 9.99219V6.28125H9.99219C10.0996 6.28125 10.1875 6.19336 10.1875 6.08594V4.91406C10.1875 4.80664 10.0996 4.71875 9.99219 4.71875Z" fill="white"/>
</svg>
